<svg width="21" height="21" viewBox="0 0 21 21" fill="none" xmlns="http://www.w3.org/2000/svg">
<path d="M5.47917 18.9421C5.02083 18.9421 4.62833 18.779 4.30167 18.4529C3.97556 18.1262 3.8125 17.7337 3.8125 17.2754V5.60872H5.47917V17.2754H14.6458V18.9421H5.47917ZM8.8125 15.6087C8.35417 15.6087 7.96194 15.4457 7.63583 15.1196C7.30917 14.7929 7.14583 14.4004 7.14583 13.9421V3.94206C7.14583 3.48372 7.30917 3.09122 7.63583 2.76456C7.96194 2.43845 8.35417 2.27539 8.8125 2.27539H16.3125C16.7708 2.27539 17.1633 2.43845 17.49 2.76456C17.8161 3.09122 17.9792 3.48372 17.9792 3.94206V13.9421C17.9792 14.4004 17.8161 14.7929 17.49 15.1196C17.1633 15.4457 16.7708 15.6087 16.3125 15.6087H8.8125ZM8.8125 13.9421H16.3125V3.94206H8.8125V13.9421ZM8.8125 13.9421V3.94206V13.9421Z" fill="#868991"/>
</svg>
